<svg xmlns="http://www.w3.org/2000/svg" viewBox="0 0 1600 420" width="1600" height="420">
<rect width="1600" height="420" fill="#1b1e22"/>
<g transform="translate(96,-46) scale(1.0)"><defs>
      <linearGradient id="plate" x1="0" y1="0" x2="0" y2="1">
        <stop offset="0" stop-color="#23272c"/><stop offset="1" stop-color="#13161a"/></linearGradient>
      <radialGradient id="core" cx="0.5" cy="0.52" r="0.52">
        <stop offset="0" stop-color="#7fd4ff" stop-opacity="0.5"/>
        <stop offset="0.6" stop-color="#7fd4ff" stop-opacity="0.12"/>
        <stop offset="1" stop-color="#7fd4ff" stop-opacity="0"/></radialGradient>
      <linearGradient id="fL" x1="0.1" y1="0" x2="0.7" y2="1">
        <stop offset="0" stop-color="#dff2ff"/><stop offset="1" stop-color="#7fd4ff"/></linearGradient>
      <linearGradient id="fR" x1="0.9" y1="0" x2="0.3" y2="1">
        <stop offset="0" stop-color="#7fd4ff" stop-opacity="0.72"/>
        <stop offset="1" stop-color="#7fd4ff" stop-opacity="0.42"/></linearGradient>
      <linearGradient id="bL" x1="0" y1="0" x2="0" y2="1">
        <stop offset="0" stop-color="#7fd4ff" stop-opacity="0.46"/>
        <stop offset="1" stop-color="#7fd4ff" stop-opacity="0.16"/></linearGradient>
      <linearGradient id="bR" x1="0" y1="0" x2="0" y2="1">
        <stop offset="0" stop-color="#7fd4ff" stop-opacity="0.26"/>
        <stop offset="1" stop-color="#7fd4ff" stop-opacity="0.07"/></linearGradient>
    </defs><circle cx="256" cy="262" r="168" fill="url(#core)"/><polygon points="256.0,100.0 144.0,256.0 256.0,306.0" fill="url(#fL)"/><polygon points="256.0,100.0 256.0,306.0 368.0,256.0" fill="url(#fR)"/><polygon points="256.0,412.0 144.0,256.0 256.0,306.0" fill="url(#bL)"/><polygon points="256.0,412.0 256.0,306.0 368.0,256.0" fill="url(#bR)"/><polygon points="256.0,100.0 144.0,256.0 256.0,412.0 368.0,256.0" fill="none" stroke="#7fd4ff" stroke-width="6.0" stroke-linejoin="round"/><line x1="256.0" y1="100.0" x2="256.0" y2="306.0" stroke="#ffffff" stroke-width="5.0" stroke-opacity="0.85" stroke-linecap="round"/><line x1="256.0" y1="306.0" x2="256.0" y2="412.0" stroke="#7fd4ff" stroke-width="4.0" stroke-opacity="0.6" stroke-linecap="round"/></g>
<text x="600" y="252" font-family="ui-sans-serif,-apple-system,Helvetica Neue,Helvetica,Arial"
      font-size="150" font-weight="600" letter-spacing="-2" fill="#e9edf1">tung<tspan fill="#7fd4ff">state</tspan></text>
<text x="604" y="316" font-family="ui-sans-serif,-apple-system,Helvetica Neue,Helvetica,Arial"
      font-size="42" fill="#98a2ac">Nothing is deleted until its copy is verified</text>
</svg>